# xmcd
# 
# Track frame offsets:
#     150
#     19070
#     38752
# 
# Disc length: 801
# 
# Revision: 1
# Processed by: cddbd v1.5.2PL0 Copyright (c) Steve Scherf et al.
# Submitted via: fre:ac v1.0.31
# 
DISCID=19031f03
DTITLE=access - MISTY HEARTBREAK
DYEAR=1994
DGENRE=JPop
TTITLE0=MISTY HEARTBREAK
TTITLE1=STONED MERGE
TTITLE2=夢を見たいから (INSTRUMENTAL MIX)
EXTD=
EXTT0=
EXTT1=
EXTT2=
PLAYORDER=
